<?xml version="1.0" encoding="UTF-8" standalone="no" ?>
<!DOCTYPE svg PUBLIC "-//W3C//DTD SVG 1.1//EN" "http://www.w3.org/Graphics/SVG/1.1/DTD/svg11.dtd">
<svg xmlns="http://www.w3.org/2000/svg" xmlns:xlink="http://www.w3.org/1999/xlink" version="1.1" width="1080" height="1080" viewBox="0 0 1080 1080" xml:space="preserve">
<desc>Created with Fabric.js 5.2.4</desc>
<defs>
</defs>
<rect x="0" y="0" width="100%" height="100%" fill="transparent"></rect>
<g transform="matrix(1 0 0 1 540 540)" id="c37a6f6f-340a-436e-be64-460ad92e3719"  >
<rect style="stroke: none; stroke-width: 1; stroke-dasharray: none; stroke-linecap: butt; stroke-dashoffset: 0; stroke-linejoin: miter; stroke-miterlimit: 4; fill: rgb(255,255,255); fill-rule: nonzero; opacity: 1; visibility: hidden;" vector-effect="non-scaling-stroke"  x="-540" y="-540" rx="0" ry="0" width="1080" height="1080" />
</g>
<g transform="matrix(1 0 0 1 540 540)" id="eb7de3be-035d-475e-9b6e-2ecdf56295d3"  >
</g>
<g transform="matrix(4.09 0 0 4.09 552.05 570.63)" id="f315d818-8226-4bbe-bc93-f518e7b75d59"  >
<rect style="stroke: rgb(0,0,0); stroke-width: 0; stroke-dasharray: none; stroke-linecap: butt; stroke-dashoffset: 0; stroke-linejoin: miter; stroke-miterlimit: 4; fill: rgb(255,255,255); fill-rule: nonzero; opacity: 1;" vector-effect="non-scaling-stroke"  x="-33.0835" y="-33.0835" rx="0" ry="0" width="66.167" height="66.167" />
</g>
<g transform="matrix(1 0 0 1 540 540)" id="1c3e6238-15e8-4fe7-8319-a913cbc7687f"  >
<path style="stroke: rgb(0,0,0); stroke-width: 0; stroke-dasharray: none; stroke-linecap: butt; stroke-dashoffset: 0; stroke-linejoin: miter; stroke-miterlimit: 4; fill: rgb(255,68,68); fill-rule: nonzero; opacity: 1;" vector-effect="non-scaling-stroke"  transform=" translate(-320, -256)" d="M 144 480 C 64.5 480 0 415.5 0 336 C 0 273.2 40.2 219.8 96.2 200.1 C 96.10000000000001 197.4 96 194.7 96 192 C 96 103.6 167.6 32 256 32 C 315.3 32 367 64.2 394.7 112.2 C 409.9 102 428.3 96 448 96 C 501 96 544 139 544 192 C 544 204.2 541.7 215.8 537.6 226.6 C 596 238.4 640 290.1 640 352 C 640 422.7 582.7 480 512 480 L 144 480 z M 223 263 C 213.6 272.4 213.6 287.6 223 296.9 C 232.4 306.19999999999993 247.6 306.29999999999995 256.9 296.9 L 295.9 257.9 L 296 392 C 296 405.3 306.7 416 320 416 C 333.3 416 344 405.3 344 392 L 344 257.9 L 383 296.9 C 392.4 306.29999999999995 407.6 306.29999999999995 416.9 296.9 C 426.19999999999993 287.5 426.29999999999995 272.29999999999995 416.9 263 L 336.9 183 C 327.5 173.6 312.29999999999995 173.6 303 183 L 223 263 z" stroke-linecap="round" />
</g>
<g transform="matrix(NaN NaN NaN NaN 0 0)"  >
<g style=""   >
</g>
</g>
<g transform="matrix(NaN NaN NaN NaN 0 0)"  >
<g style=""   >
</g>
</g>
</svg>